<svg xmlns="http://www.w3.org/2000/svg" viewBox="0 0 512 512" role="img" aria-labelledby="title desc">
  <title id="title">SK favicon</title>
  <desc id="desc">Refined navy SK monogram with removed red marks, separated letterforms, thicker white outline, and tighter favicon spacing.</desc>
  <defs>
    <linearGradient id="navy" x1="46" y1="50" x2="471" y2="468" gradientUnits="userSpaceOnUse">
      <stop offset="0" stop-color="#151b3b"/>
      <stop offset="0.48" stop-color="#10172e"/>
      <stop offset="1" stop-color="#070d1c"/>
    </linearGradient>
  </defs>
  <g fill="none" stroke="#ffffff" stroke-width="24" stroke-linejoin="round" stroke-linecap="round">
    <path d="M226.83 132.43Q223.31 138.25 220 141.16Q216.7 144.07 211.85 144.07Q207.23 144.07 202.38 139.77Q197.53 135.48 191.14 130.21Q184.75 124.94 176.38 120.64Q168.01 116.34 156.11 116.34Q144.88 116.34 136.4 120.36Q127.92 124.38 122.19 131.59Q116.46 138.8 113.6 148.51Q110.73 158.22 110.73 169.31Q110.73 181.23 115.8 189.28Q120.87 197.32 129.13 203.42Q137.39 209.52 148.07 214.38Q158.76 219.23 169.77 224.78Q180.79 230.32 191.47 237.53Q202.16 244.74 210.42 255.42Q218.68 266.1 223.75 281.07Q228.82 296.05 228.82 317.4Q228.82 347.08 220.55 373.56Q212.29 400.05 196.98 419.88Q181.67 439.7 159.86 451.35Q138.05 463 110.73 463Q96.85 463 83.08 459.12Q69.31 455.23 56.98 448.3Q44.64 441.37 34.07 431.66Q23.49 421.96 16 410.03L38.69 372.04Q41.34 368.15 45.41 365.24Q49.49 362.33 53.67 362.33Q59.4 362.33 65.02 368.02Q70.64 373.7 77.8 380.36Q84.96 387.01 94.76 392.7Q104.56 398.38 118.88 398.38Q141.57 398.38 154.24 382.44Q166.91 366.49 166.91 337.09Q166.91 323.78 161.84 315.32Q156.78 306.86 148.62 301.04Q140.47 295.22 130.01 290.78Q119.54 286.34 108.53 281.21Q97.51 276.08 87.05 269.29Q76.58 262.49 68.43 251.68Q60.28 240.86 55.21 225.19Q50.15 209.52 50.15 186.5Q50.15 160.16 57.97 135.89Q65.79 111.63 80.33 92.91Q94.87 74.19 115.58 63.09Q136.29 52 162.06 52Q175.28 52 187.73 55.61Q200.18 59.21 210.97 65.45Q221.77 71.69 230.69 80.29Q239.61 88.88 246 98.87Z"/>
    <path d="M329.44 223.25H338.78Q351.18 223.25 357.65 210.23L426.82 69.27Q431.49 59.36 437.33 55.82Q443.17 52.28 451.08 52.28H496L408.32 222.4Q404.18 230.61 400.05 235.99Q395.92 241.37 391.43 245.05Q397.18 248.44 401.4 254.81Q405.62 261.18 408.67 271.37L469.95 463H423.77Q414.78 463 410.83 458.9Q406.88 454.79 404.54 447.43L356.93 298.26Q354.59 290.33 350.37 287.22Q346.15 284.11 338.42 284.11H324.76L310.75 463H259L290.8 52H342.91Z"/>
  </g>
  <g fill="url(#navy)">
    <path d="M226.83 132.43Q223.31 138.25 220 141.16Q216.7 144.07 211.85 144.07Q207.23 144.07 202.38 139.77Q197.53 135.48 191.14 130.21Q184.75 124.94 176.38 120.64Q168.01 116.34 156.11 116.34Q144.88 116.34 136.4 120.36Q127.92 124.38 122.19 131.59Q116.46 138.8 113.6 148.51Q110.73 158.22 110.73 169.31Q110.73 181.23 115.8 189.28Q120.87 197.32 129.13 203.42Q137.39 209.52 148.07 214.38Q158.76 219.23 169.77 224.78Q180.79 230.32 191.47 237.53Q202.16 244.74 210.42 255.42Q218.68 266.1 223.75 281.07Q228.82 296.05 228.82 317.4Q228.82 347.08 220.55 373.56Q212.29 400.05 196.98 419.88Q181.67 439.7 159.86 451.35Q138.05 463 110.73 463Q96.85 463 83.08 459.12Q69.31 455.23 56.98 448.3Q44.64 441.37 34.07 431.66Q23.49 421.96 16 410.03L38.69 372.04Q41.34 368.15 45.41 365.24Q49.49 362.33 53.67 362.33Q59.4 362.33 65.02 368.02Q70.64 373.7 77.8 380.36Q84.96 387.01 94.76 392.7Q104.56 398.38 118.88 398.38Q141.57 398.38 154.24 382.44Q166.91 366.49 166.91 337.09Q166.91 323.78 161.84 315.32Q156.78 306.86 148.62 301.04Q140.47 295.22 130.01 290.78Q119.54 286.34 108.53 281.21Q97.51 276.08 87.05 269.29Q76.58 262.49 68.43 251.68Q60.28 240.86 55.21 225.19Q50.15 209.52 50.15 186.5Q50.15 160.16 57.97 135.89Q65.79 111.63 80.33 92.91Q94.87 74.19 115.58 63.09Q136.29 52 162.06 52Q175.28 52 187.73 55.61Q200.18 59.21 210.97 65.45Q221.77 71.69 230.69 80.29Q239.61 88.88 246 98.87Z"/>
    <path d="M329.44 223.25H338.78Q351.18 223.25 357.65 210.23L426.82 69.27Q431.49 59.36 437.33 55.82Q443.17 52.28 451.08 52.28H496L408.32 222.4Q404.18 230.61 400.05 235.99Q395.92 241.37 391.43 245.05Q397.18 248.44 401.4 254.81Q405.62 261.18 408.67 271.37L469.95 463H423.77Q414.78 463 410.83 458.9Q406.88 454.79 404.54 447.43L356.93 298.26Q354.59 290.33 350.37 287.22Q346.15 284.11 338.42 284.11H324.76L310.75 463H259L290.8 52H342.91Z"/>
  </g>
</svg>